# xmcd
#
# Track frame offsets:
#	150
#	12323
#	25321
#	37276
#	51256
#	63406
#	74506
#	83896
#	96586
#	107686
#	119146
#	129999
#
# Disc length: 1880 seconds
#
# Revision: 1
# Processed by: cddbd v1.5.2PL0 Copyright (c) Steve Scherf et al.
# Submitted via: audiograbber 1.83.01
#
DISCID=b307560c
DTITLE=Barrier Brothers - More Golden Bluegrass Hits
DYEAR=1962
DGENRE=Bluegrass
TTITLE0=Smoke Along The Track
TTITLE1=Some Day We'll Meet Again Sweetheart
TTITLE2=I'll Go Steppin' Too
TTITLE3=Don't This Road Look Rough And Rocky
TTITLE4=Jimmy Brown, The Newsboy
TTITLE5=Shuckin' Corn
TTITLE6=Blue Ridge Mountain Home
TTITLE7=Little Cabin Home On The Hill
TTITLE8=Ain't Gonna Work Tommorrow
TTITLE9=Whippoorwill
TTITLE10=Destroyed
TTITLE11=Dear Old Dixie
EXTD=
EXTT0=
EXTT1=
EXTT2=
EXTT3=
EXTT4=
EXTT5=
EXTT6=
EXTT7=
EXTT8=
EXTT9=
EXTT10=
EXTT11=
PLAYORDER=
